# This file uses centimeters as units for non-parametric coordinates.

mtllib StoneWalls_assets.mtl
g default
v -6.000000 0.000000 0.000000
v 0.000000 0.000000 0.000000
v 6.000000 0.000000 0.000000
v -6.000000 6.000000 0.000000
v 0.000000 6.000000 0.000000
v 6.000000 6.000000 0.000000
v -6.000000 12.000000 0.000000
v 0.000000 12.000000 0.000000
v 6.000000 12.000000 0.000000
vt 0.000000 0.000000
vt 0.500000 0.000000
vt 1.000000 0.000000
vt 0.000000 0.500000
vt 0.500000 0.500000
vt 1.000000 0.500000
vt 0.000000 1.000000
vt 0.500000 1.000000
vt 1.000000 1.000000
vn 0.000000 0.000000 1.000000
vn 0.000000 0.000000 1.000000
vn 0.000000 0.000000 1.000000
vn 0.000000 0.000000 1.000000
vn 0.000000 0.000000 1.000000
vn 0.000000 0.000000 1.000000
vn 0.000000 0.000000 1.000000
vn 0.000000 0.000000 1.000000
vn 0.000000 0.000000 1.000000
s 1
g wall1
usemtl phong1SG
f 1/1/1 2/2/2 5/5/3 4/4/4
f 2/2/2 3/3/5 6/6/6 5/5/3
f 4/4/4 5/5/3 8/8/7 7/7/8
f 5/5/3 6/6/6 9/9/9 8/8/7
g default
v 8.000000 0.000000 0.000000
v 14.000000 0.000000 0.000000
v 20.000000 0.000000 0.000000
v 8.000000 6.000000 0.000000
v 14.000000 6.000000 0.000000
v 20.000000 6.000000 0.000000
v 8.000000 12.000000 0.000000
v 14.000000 12.000000 0.000000
v 20.000000 12.000000 0.000000
vt 0.000000 0.000000
vt 0.500000 0.000000
vt 1.000000 0.000000
vt 0.000000 0.500000
vt 0.500000 0.500000
vt 1.000000 0.500000
vt 0.000000 1.000000
vt 0.500000 1.000000
vt 1.000000 1.000000
vn 0.000000 0.000000 1.000000
vn 0.000000 0.000000 1.000000
vn 0.000000 0.000000 1.000000
vn 0.000000 0.000000 1.000000
vn 0.000000 0.000000 1.000000
vn 0.000000 0.000000 1.000000
vn 0.000000 0.000000 1.000000
vn 0.000000 0.000000 1.000000
vn 0.000000 0.000000 1.000000
s 1
g wall2
usemtl phong2SG
f 10/10/10 11/11/11 14/14/12 13/13/13
f 11/11/11 12/12/14 15/15/15 14/14/12
f 13/13/13 14/14/12 17/17/16 16/16/17
f 14/14/12 15/15/15 18/18/18 17/17/16
g default
v 22.000000 0.000000 0.000000
v 28.000000 0.000000 0.000000
v 34.000000 0.000000 0.000000
v 22.000000 6.000000 0.000000
v 28.000000 6.000000 0.000000
v 34.000000 6.000000 0.000000
v 22.000000 12.000000 0.000000
v 28.000000 12.000000 0.000000
v 34.000000 12.000000 0.000000
vt 0.000000 0.000000
vt 0.500000 0.000000
vt 1.000000 0.000000
vt 0.000000 0.500000
vt 0.500000 0.500000
vt 1.000000 0.500000
vt 0.000000 1.000000
vt 0.500000 1.000000
vt 1.000000 1.000000
vn 0.000000 0.000000 1.000000
vn 0.000000 0.000000 1.000000
vn 0.000000 0.000000 1.000000
vn 0.000000 0.000000 1.000000
vn 0.000000 0.000000 1.000000
vn 0.000000 0.000000 1.000000
vn 0.000000 0.000000 1.000000
vn 0.000000 0.000000 1.000000
vn 0.000000 0.000000 1.000000
s 1
g wall3
usemtl phong3SG
f 19/19/19 20/20/20 23/23/21 22/22/22
f 20/20/20 21/21/23 24/24/24 23/23/21
f 22/22/22 23/23/21 26/26/25 25/25/26
f 23/23/21 24/24/24 27/27/27 26/26/25
g default
v -6.000000 0.000000 14.000000
v 0.000000 0.000000 14.000000
v 6.000000 0.000000 14.000000
v -6.000000 0.000000 8.000000
v 0.000000 0.000000 8.000000
v 6.000000 0.000000 8.000000
v -6.000000 0.000000 2.000000
v 0.000000 0.000000 2.000000
v 6.000000 0.000000 2.000000
vt 0.000000 0.000000
vt 0.500000 0.000000
vt 1.000000 0.000000
vt 0.000000 0.500000
vt 0.500000 0.500000
vt 1.000000 0.500000
vt 0.000000 1.000000
vt 0.500000 1.000000
vt 1.000000 1.000000
vn 0.000000 1.000000 0.000000
vn 0.000000 1.000000 0.000000
vn 0.000000 1.000000 0.000000
vn 0.000000 1.000000 0.000000
vn 0.000000 1.000000 0.000000
vn 0.000000 1.000000 0.000000
vn 0.000000 1.000000 0.000000
vn 0.000000 1.000000 0.000000
vn 0.000000 1.000000 0.000000
s 1
g floor1
usemtl phong4SG
f 28/28/28 29/29/29 32/32/30 31/31/31
f 29/29/29 30/30/32 33/33/33 32/32/30
f 31/31/31 32/32/30 35/35/34 34/34/35
f 32/32/30 33/33/33 36/36/36 35/35/34
